<svg width="25" height="24" viewBox="0 0 25 24" fill="none" xmlns="http://www.w3.org/2000/svg">
<g clip-path="url(#clip0_27_388)">
<path d="M12.4999 21C12.3683 21.0008 12.2378 20.9756 12.116 20.9258C11.9941 20.876 11.8833 20.8027 11.7899 20.71L4.01987 12.93C3.04523 11.9452 2.49854 10.6156 2.49854 9.23002C2.49854 7.84445 3.04523 6.51484 4.01987 5.53002C5.00213 4.55053 6.3327 4.00049 7.71987 4.00049C9.10704 4.00049 10.4376 4.55053 11.4199 5.53002L12.4999 6.61002L13.5799 5.53002C14.5621 4.55053 15.8927 4.00049 17.2799 4.00049C18.667 4.00049 19.9976 4.55053 20.9799 5.53002C21.9545 6.51484 22.5012 7.84445 22.5012 9.23002C22.5012 10.6156 21.9545 11.9452 20.9799 12.93L13.2099 20.71C13.1164 20.8027 13.0056 20.876 12.8838 20.9258C12.7619 20.9756 12.6315 21.0008 12.4999 21Z" fill="#ABABAB"/>
</g>
<defs>
<clipPath id="clip0_27_388">
<rect width="24" height="24" fill="white" transform="translate(0.5)"/>
</clipPath>
</defs>
</svg>
