<svg width="25" height="24" viewBox="0 0 25 24" fill="none" xmlns="http://www.w3.org/2000/svg">
<g clip-path="url(#clip0_27_379)">
<path d="M14.5 14H10.5V21H14.5V14Z" fill="#3DAB85"/>
<path d="M20.9201 10.1799L13.2101 2.29995C13.1172 2.20622 13.0066 2.13183 12.8847 2.08106C12.7628 2.03029 12.6321 2.00415 12.5001 2.00415C12.3681 2.00415 12.2374 2.03029 12.1155 2.08106C11.9937 2.13183 11.8831 2.20622 11.7901 2.29995L4.08012 10.1899C3.89355 10.378 3.74621 10.6013 3.64664 10.8468C3.54708 11.0922 3.49727 11.3551 3.50012 11.6199V19.9999C3.49934 20.5119 3.69489 21.0046 4.04649 21.3766C4.39809 21.7487 4.87898 21.9718 5.39012 21.9999H8.50012V12.9999C8.50012 12.7347 8.60547 12.4804 8.79301 12.2928C8.98055 12.1053 9.2349 11.9999 9.50012 11.9999H15.5001C15.7653 11.9999 16.0197 12.1053 16.2072 12.2928C16.3948 12.4804 16.5001 12.7347 16.5001 12.9999V21.9999H19.6101C20.1213 21.9718 20.6021 21.7487 20.9537 21.3766C21.3053 21.0046 21.5009 20.5119 21.5001 19.9999V11.6199C21.5009 11.0829 21.2929 10.5665 20.9201 10.1799Z" fill="#3DAB85"/>
</g>
<defs>
<clipPath id="clip0_27_379">
<rect width="24" height="24" fill="white" transform="translate(0.5)"/>
</clipPath>
</defs>
</svg>
