<svg width="25" height="24" viewBox="0 0 25 24" fill="none" xmlns="http://www.w3.org/2000/svg">
<g clip-path="url(#clip0_27_405)">
<path d="M21.58 6.99998C21.4072 6.7006 21.1598 6.45111 20.8618 6.27585C20.5639 6.10059 20.2256 6.00554 19.88 5.99998H7.08L6.5 3.73998C6.4414 3.52181 6.31066 3.32992 6.12908 3.19555C5.94749 3.06118 5.72576 2.99224 5.5 2.99998H3.5C3.23478 2.99998 2.98043 3.10533 2.79289 3.29287C2.60536 3.48041 2.5 3.73476 2.5 3.99998C2.5 4.26519 2.60536 4.51955 2.79289 4.70708C2.98043 4.89462 3.23478 4.99998 3.5 4.99998H4.74L7.5 15.26C7.5586 15.4781 7.68934 15.67 7.87092 15.8044C8.05251 15.9388 8.27424 16.0077 8.5 16H17.5C17.6847 15.9994 17.8656 15.9477 18.0227 15.8507C18.1798 15.7536 18.3069 15.6149 18.39 15.45L21.67 8.88998C21.8122 8.59199 21.8783 8.26345 21.8626 7.93366C21.8469 7.60387 21.7498 7.2831 21.58 6.99998Z" fill="#ABABAB"/>
<path d="M8 21C8.82843 21 9.5 20.3284 9.5 19.5C9.5 18.6716 8.82843 18 8 18C7.17157 18 6.5 18.6716 6.5 19.5C6.5 20.3284 7.17157 21 8 21Z" fill="#ABABAB"/>
<path d="M18 21C18.8284 21 19.5 20.3284 19.5 19.5C19.5 18.6716 18.8284 18 18 18C17.1716 18 16.5 18.6716 16.5 19.5C16.5 20.3284 17.1716 21 18 21Z" fill="#ABABAB"/>
</g>
<defs>
<clipPath id="clip0_27_405">
<rect width="24" height="24" fill="white" transform="translate(0.5)"/>
</clipPath>
</defs>
</svg>
