<svg width="25" height="24" viewBox="0 0 25 24" fill="none" xmlns="http://www.w3.org/2000/svg">
<g clip-path="url(#clip0_27_396)">
<path d="M21.5 6.00004H16.5V4.33004C16.4765 3.68985 16.2002 3.08509 15.7316 2.64833C15.2629 2.21156 14.6402 1.97843 14 2.00004H11C10.3598 1.97843 9.73706 2.21156 9.26843 2.64833C8.7998 3.08509 8.52346 3.68985 8.5 4.33004V6.00004H3.5C3.23478 6.00004 2.98043 6.10539 2.79289 6.29293C2.60536 6.48047 2.5 6.73482 2.5 7.00004C2.5 7.26525 2.60536 7.51961 2.79289 7.70714C2.98043 7.89468 3.23478 8.00004 3.5 8.00004H4.5V17C4.5 17.7956 4.93739 18.4374 5.5 19C6.06261 19.5626 6.70435 20 7.5 20H17.5C18.2956 20 18.9374 19.5626 19.5 19C20.0626 18.4374 20.5 17.7956 20.5 17V8.00004H21.5C21.7652 8.00004 22.0196 7.89468 22.2071 7.70714C22.3946 7.51961 22.5 7.26525 22.5 7.00004C22.5 6.73482 22.3946 6.48047 22.2071 6.29293C22.0196 6.10539 21.7652 6.00004 21.5 6.00004ZM10.5 4.33004C10.5 4.17004 10.71 4.00004 11 4.00004H14C14.29 4.00004 14.5 4.17004 14.5 4.33004V6.00004H10.5V4.33004Z" fill="#ABABAB"/>
<rect x="6.5" y="22" width="12" height="2" rx="1" fill="#ABABAB"/>
</g>
<defs>
<clipPath id="clip0_27_396">
<rect width="24" height="24" fill="white" transform="translate(0.5)"/>
</clipPath>
</defs>
</svg>
